<svg width="160" height="160" viewBox="0 0 160 160" fill="none" xmlns="http://www.w3.org/2000/svg">
<circle cx="80" cy="80" r="80" fill="#6AABEE"/>
<circle cx="80" cy="80" r="60" fill="white"/>
<mask id="mask0_0_2236" style="mask-type:luminance" maskUnits="userSpaceOnUse" x="67" y="40" width="28" height="46">
<path fill-rule="evenodd" clip-rule="evenodd" d="M67.6184 40H94.7089V85.5838H67.6184V40Z" fill="white"/>
</mask>
<g mask="url(#mask0_0_2236)">
<path fill-rule="evenodd" clip-rule="evenodd" d="M67.6184 48.3707C67.6184 48.3707 75.0738 43.6541 79.7981 41.5577C84.5239 39.4613 86.624 39.1464 87.0442 42.71C87.4636 46.2743 87.2543 51.9342 87.0442 54.3448C86.8333 56.7561 86.2038 68.8096 86.3085 71.3253C86.4139 73.8403 87.1488 75.9367 89.6691 74.7837C92.1886 73.6314 93.239 72.8978 93.239 72.8978L94.7089 75.9367C94.7089 75.9367 87.3589 81.9116 83.3688 83.9027C83.3688 83.9027 78.7484 86.8379 76.5436 84.9513C74.3389 83.0646 74.0234 80.3391 74.2335 76.0419C74.4435 71.744 75.1785 59.4808 75.0738 55.7075C74.9684 51.9342 74.8637 50.6767 73.6032 50.1528C72.3434 49.6282 68.6681 51.7245 68.6681 51.7245L67.6184 48.3707Z" fill="#1974D2"/>
</g>
<path fill-rule="evenodd" clip-rule="evenodd" d="M112.936 66.118C112.767 65.6852 112.545 65.2807 112.278 64.9092C111.285 63.5354 109.673 62.6377 107.846 62.6377C105.021 62.6377 102.697 64.7764 102.411 67.5208C102.391 67.7085 102.38 67.9002 102.38 68.0934C102.38 68.2866 102.391 68.4767 102.411 68.6652V80.9841C102.411 84.9561 102.077 88.171 101.41 90.6302C100.511 93.7814 98.907 96.5234 96.5968 98.8554C92.4643 103.057 87.0232 105.158 80.2728 105.158C76.9877 105.158 73.9591 104.683 71.187 103.735C68.0554 102.659 65.4895 101.059 63.4869 98.9316C61.0233 96.3435 59.3804 93.5772 58.5597 90.6302C58.1993 89.2981 57.9428 87.7994 57.7893 86.1335C57.6863 84.8022 57.6351 83.0852 57.6351 80.9841V68.223C57.6351 68.2057 57.6383 68.19 57.6383 68.1735C57.6383 68.157 57.6351 68.1405 57.6351 68.124C57.6084 65.1338 55.1739 62.7178 52.1728 62.7178C50.2867 62.7178 48.6249 63.6713 47.6421 65.1205C47.4202 65.448 47.2377 65.803 47.0905 66.1753C44.2823 71.6263 42.7786 77.8565 43.0265 84.4629C43.7456 103.619 59.3575 119.227 78.5465 119.971C99.6671 120.791 117.047 103.943 117.047 83.0428C117.047 76.9414 115.559 71.1896 112.936 66.118Z" fill="#1974D2"/>
</svg>
