<svg width="29" height="29" viewBox="0 0 29 29" fill="none" xmlns="http://www.w3.org/2000/svg">
<path d="M1.36863 25.3686C0.74379 25.9935 0.74379 27.0065 1.36863 27.6314C1.99347 28.2562 3.00653 28.2562 3.63137 27.6314L1.36863 25.3686ZM27.6314 3.63137C28.2562 3.00653 28.2562 1.99347 27.6314 1.36863C27.0065 0.74379 25.9935 0.74379 25.3686 1.36863L27.6314 3.63137ZM25.3686 27.6314C25.9935 28.2562 27.0065 28.2562 27.6314 27.6314C28.2562 27.0065 28.2562 25.9935 27.6314 25.3686L25.3686 27.6314ZM3.63137 1.36863C3.00653 0.74379 1.99347 0.74379 1.36863 1.36863C0.74379 1.99347 0.74379 3.00653 1.36863 3.63137L3.63137 1.36863ZM3.63137 27.6314L27.6314 3.63137L25.3686 1.36863L1.36863 25.3686L3.63137 27.6314ZM27.6314 25.3686L3.63137 1.36863L1.36863 3.63137L25.3686 27.6314L27.6314 25.3686Z" fill="#1974D2"/>
</svg>
