<svg width="169" height="150" viewBox="0 0 169 150" fill="none" xmlns="http://www.w3.org/2000/svg">
<path fill-rule="evenodd" clip-rule="evenodd" d="M87.5373 19.3181C101.037 5.29832 125.104 -12.7722 153.502 17.309C181.901 47.3902 132.558 86.6182 125.5 92.4808C118.442 98.3435 102.888 92.4808 116.261 77.5C129.634 62.5192 156.991 45.075 138.934 25.7507C120.877 6.42635 101.351 29.5917 94.8683 35.4327C88.3858 41.2737 74.0373 33.3378 87.5373 19.3181Z" fill="#1974D2"/>
<path fill-rule="evenodd" clip-rule="evenodd" d="M87.6398 131.387C74.1398 145.407 50.0736 163.477 21.6751 133.396C-6.72339 103.315 42.6194 64.0869 49.6772 58.2242C56.735 52.3616 72.289 58.2242 58.916 73.2051C45.5431 88.1859 18.1857 105.63 36.2429 124.954C54.3002 144.279 73.8262 121.113 80.3088 115.272C86.7914 109.431 101.14 117.367 87.6398 131.387Z" fill="#1974D2"/>
<path fill-rule="evenodd" clip-rule="evenodd" d="M58.7722 4.9555C54.1327 -2.37828 39.0708 4.86452 45.3584 14.6449C50.2611 22.271 68.6763 44.1073 76.5511 53.357C77.2738 54.2059 78.6144 53.4336 78.2227 52.3899C73.679 40.2831 62.4407 10.7543 58.7722 4.9555Z" fill="#6AABEE"/>
<path fill-rule="evenodd" clip-rule="evenodd" d="M14.9813 17.0206C7.03399 13.535 -1.40278 27.9621 9.27909 32.5544C17.6036 36.1333 43.4668 43.425 54.4768 46.4691C55.5396 46.763 56.2188 45.3993 55.3319 44.744C45.4936 37.4763 21.2699 19.7787 14.9813 17.0206Z" fill="#6AABEE"/>
<path fill-rule="evenodd" clip-rule="evenodd" d="M119.707 142.627C125.912 150.328 142.38 140.348 133.99 130.091C127.307 121.921 102.65 98.753 92.8905 89.6614C92.0762 88.9028 90.8482 89.8352 91.3525 90.8273C97.756 103.425 114.709 136.424 119.707 142.627Z" fill="#6AABEE"/>
<path fill-rule="evenodd" clip-rule="evenodd" d="M155.192 129.533C162.246 132.727 170.682 119.948 161.196 115.737C153.896 112.497 131.214 105.844 121.147 102.95C120.092 102.647 119.42 104.003 120.291 104.671C129.104 111.434 149.693 127.043 155.192 129.533Z" fill="#6AABEE"/>
</svg>
