<svg width="170" height="170" viewBox="0 0 170 170" fill="none" xmlns="http://www.w3.org/2000/svg">
<g filter="url(#filter0_d_0_1786)">
<circle cx="85" cy="84" r="80" fill="white"/>
</g>
<circle cx="85" cy="84" r="60" fill="#6AABEE"/>
<path fill-rule="evenodd" clip-rule="evenodd" d="M93.75 89H91.775L91.075 88.325C93.525 85.475 95 81.775 95 77.75C95 68.775 87.725 61.5 78.75 61.5C69.775 61.5 62.5 68.775 62.5 77.75C62.5 86.725 69.775 94 78.75 94C82.775 94 86.475 92.525 89.325 90.075L90 90.775V92.75L102.5 105.225L106.225 101.5L93.75 89ZM78.75 89C72.525 89 67.5 83.975 67.5 77.75C67.5 71.525 72.525 66.5 78.75 66.5C84.975 66.5 90 71.525 90 77.75C90 83.975 84.975 89 78.75 89Z" fill="white"/>
<defs>
<filter id="filter0_d_0_1786" x="0" y="0" width="170" height="170" filterUnits="userSpaceOnUse" color-interpolation-filters="sRGB">
<feFlood flood-opacity="0" result="BackgroundImageFix"/>
<feColorMatrix in="SourceAlpha" type="matrix" values="0 0 0 0 0 0 0 0 0 0 0 0 0 0 0 0 0 0 127 0" result="hardAlpha"/>
<feMorphology radius="15" operator="erode" in="SourceAlpha" result="effect1_dropShadow_0_1786"/>
<feOffset dy="1"/>
<feGaussianBlur stdDeviation="10"/>
<feColorMatrix type="matrix" values="0 0 0 0 0 0 0 0 0 0 0 0 0 0 0 0 0 0 0.5 0"/>
<feBlend mode="normal" in2="BackgroundImageFix" result="effect1_dropShadow_0_1786"/>
<feBlend mode="normal" in="SourceGraphic" in2="effect1_dropShadow_0_1786" result="shape"/>
</filter>
</defs>
</svg>
