<svg width="27" height="28" viewBox="0 0 27 28" fill="none" xmlns="http://www.w3.org/2000/svg">
<path fill-rule="evenodd" clip-rule="evenodd" d="M5.64545 13.7872C5.64545 12.9116 5.79088 12.0721 6.05045 11.2847L1.50709 7.81522C0.621613 9.61307 0.122726 11.6389 0.122726 13.7872C0.122726 15.9338 0.620999 17.9583 1.50525 19.755L6.04616 16.2787C5.78904 15.495 5.64545 14.6586 5.64545 13.7872Z" fill="#FBBC05"/>
<path fill-rule="evenodd" clip-rule="evenodd" d="M13.6227 5.82129C15.525 5.82129 17.2432 6.49533 18.5932 7.59831L22.5205 3.67661C20.1273 1.5932 17.0591 0.306396 13.6227 0.306396C8.28778 0.306396 3.70269 3.35736 1.5071 7.81523L6.05046 11.2847C7.09732 8.10691 10.0814 5.82129 13.6227 5.82129Z" fill="#EA4335"/>
<path fill-rule="evenodd" clip-rule="evenodd" d="M13.6227 21.7532C10.0814 21.7532 7.09732 19.4676 6.05046 16.2898L1.5071 19.7587C3.70269 24.2171 8.28778 27.2681 13.6227 27.2681C16.9155 27.2681 20.0592 26.099 22.4186 23.9083L18.106 20.5743C16.8891 21.3408 15.3569 21.7532 13.6227 21.7532Z" fill="#34A853"/>
<path fill-rule="evenodd" clip-rule="evenodd" d="M26.5091 13.7872C26.5091 12.9907 26.3864 12.1328 26.2023 11.3362H13.6227V16.5447H20.8636C20.5016 18.3205 19.5161 19.6857 18.106 20.5742L22.4186 23.9083C24.8971 21.608 26.5091 18.1814 26.5091 13.7872Z" fill="#4285F4"/>
</svg>
