<svg width="12" height="26" viewBox="0 0 12 26" fill="none" xmlns="http://www.w3.org/2000/svg">
<path fill-rule="evenodd" clip-rule="evenodd" d="M2 0C0.895431 0 0 0.89543 0 2V24C0 25.1046 0.895431 26 2 26H10C11.1046 26 12 25.1046 12 24V2C12 0.895431 11.1046 0 10 0H2ZM4 5H8V21H4V5ZM3 5C3 4.44772 3.44772 4 4 4H8C8.55228 4 9 4.44772 9 5V21C9 21.5523 8.55228 22 8 22H4C3.44772 22 3 21.5523 3 21V5Z" fill="white"/>
<path d="M10.3551 11.5C10.3551 11.5 9.19815 13.5 7.64325 13.5C6.19815 13.5 5.92756 11.5 4.35072 11.5C3 11.5 1.5 13.5 1.5 13.5" stroke="white" stroke-linecap="square"/>
</svg>
