<svg width="16" height="16" viewBox="0 0 16 16" fill="none" xmlns="http://www.w3.org/2000/svg">
<path fill-rule="evenodd" clip-rule="evenodd" d="M12 5.33333H11.3333V4C11.3333 2.16 9.83999 0.666664 7.99999 0.666664C6.15999 0.666664 4.66666 2.16 4.66666 4V5.33333H3.99999C3.26666 5.33333 2.66666 5.93333 2.66666 6.66666V13.3333C2.66666 14.0667 3.26666 14.6667 3.99999 14.6667H12C12.7333 14.6667 13.3333 14.0667 13.3333 13.3333V6.66666C13.3333 5.93333 12.7333 5.33333 12 5.33333ZM10.0667 5.33333H5.93332V4C5.93332 2.86 6.85999 1.93333 7.99999 1.93333C9.13999 1.93333 10.0667 2.86 10.0667 4V5.33333Z" fill="black"/>
</svg>
