<?xml version="1.0" encoding="UTF-8"?>
<svg width="165px" height="178px" viewBox="0 0 165 178" version="1.1"
    xmlns="http://www.w3.org/2000/svg">
    <title>Line</title>
    <g id="Scene" stroke="none" stroke-width="1" fill="none" fill-rule="evenodd">
        <g id="Scene/Home" transform="translate(-194.000000, -214.000000)" fill="#333333"
            fill-rule="nonzero">
            <path id="Line"
                d="M195.58246,386.474513 L196.551361,386.721959 L196.427638,387.20641 C196.210144,388.058033 195.998333,388.916316 195.792207,389.781257 L195.487281,391.083664 L195.375221,391.570944 L194.400659,391.346825 L194.512719,390.859544 C194.714351,389.982767 194.921713,389.112645 195.134803,388.249176 L195.458737,386.958964 L195.58246,386.474513 Z M197.79017,378.761077 L198.74494,379.058422 L198.596268,379.535807 C198.335051,380.374571 198.079918,381.220463 197.830868,382.073485 L197.461857,383.358365 L197.325942,383.839538 L196.363597,383.567706 L196.499513,383.086534 C196.744079,382.220715 196.994783,381.362024 197.251627,380.510461 L197.641497,379.238462 L197.79017,378.761077 Z M200.422637,371.169196 L201.358728,371.520954 L201.182848,371.988999 C200.873905,372.811152 200.571469,373.640931 200.275541,374.478337 L199.836529,375.740166 L199.674519,376.213192 L198.728469,375.889173 L198.890478,375.416147 C199.182012,374.564943 199.48012,373.72137 199.784803,372.885429 L200.246758,371.637241 L200.422637,371.169196 Z M203.509503,363.757372 L204.421394,364.167806 L204.216177,364.623751 C203.855762,365.424509 203.502289,366.233401 203.155756,367.050429 L202.641163,368.282073 L202.450875,368.744448 L201.526125,368.363873 L201.716413,367.901498 C202.058743,367.069679 202.408094,366.246009 202.764465,365.430487 L203.304286,364.213317 L203.509503,363.757372 Z M207.091724,356.556969 L207.97277,357.029999 L207.736255,357.470522 C207.320804,358.244323 206.912726,359.026764 206.512021,359.817845 L205.916492,361.010947 L205.69582,361.459615 L204.798482,361.018271 L205.019154,360.569602 C205.415969,359.762801 205.820248,358.964665 206.231993,358.175196 L206.855209,356.997492 L207.091724,356.556969 Z M211.19986,349.624874 L212.042415,350.163484 L211.77311,350.584762 C211.29965,351.325402 210.833975,352.075161 210.376085,352.834041 L209.695089,353.9792 L209.442272,354.410574 L208.579524,353.90494 L208.832341,353.473566 C209.286777,352.698175 209.749103,351.931946 210.219317,351.174879 L210.930555,350.046152 L211.19986,349.624874 Z M215.822739,343.067464 L216.618785,343.672701 L216.316166,344.070724 C215.783375,344.771484 215.25873,345.481778 214.742232,346.201609 L213.973594,347.288507 L213.687695,347.698704 L212.8673,347.126907 L213.153199,346.71671 C213.666795,345.979819 214.188649,345.252526 214.71876,344.53483 L215.520121,343.465487 L215.822739,343.067464 Z M220.997449,336.900215 L221.73854,337.571619 L221.402838,337.942165 C220.81103,338.5954 220.227638,339.258474 219.652662,339.93139 L218.796511,340.948145 L218.47722,341.332922 L217.707667,340.694339 L218.026958,340.309562 C218.599673,339.619387 219.180917,338.939135 219.770691,338.268808 L220.661747,337.270761 L220.997449,336.900215 Z M226.701191,331.203118 L227.379644,331.937762 L227.012322,332.276989 C226.363582,332.876108 225.723422,333.485242 225.091838,334.104392 L224.150897,335.040628 L223.799087,335.395916 L223.08851,334.692297 L223.44032,334.337008 C224.070305,333.700794 224.708974,333.074698 225.356327,332.458721 L226.333869,331.542345 L226.701191,331.203118 Z M232.897514,326.036047 L233.5072,326.82869 L233.110879,327.133533 C232.409602,327.672942 231.716932,328.222383 231.032865,328.781856 L230.01322,329.628589 L229.630958,329.950887 L228.986362,329.186363 L229.368624,328.864065 C230.051705,328.288136 230.743483,327.722356 231.443958,327.166725 L232.501193,326.34089 L232.897514,326.036047 Z M239.512251,321.406197 L240.065927,322.23893 L239.64956,322.515768 C238.784504,323.090935 237.923854,323.671996 237.063896,324.261607 L236.704492,324.509329 L236.704492,324.509329 L236.346474,324.758664 L235.936866,325.045406 L235.363381,324.22619 L235.77299,323.939447 C236.013855,323.770832 236.255652,323.603306 236.498399,323.436857 L237.795232,322.554498 L237.795232,322.554498 L239.095885,321.683035 L239.512251,321.406197 Z M246.275889,317.101742 L246.799874,317.95347 L246.37401,318.215462 C245.616964,318.681198 244.864209,319.150219 244.115205,319.62296 L242.994446,320.334917 L242.573187,320.604252 L242.034516,319.761736 L242.455775,319.4924 C243.204431,319.01374 243.956566,318.539046 244.712717,318.067884 L245.850025,317.363735 L246.275889,317.101742 Z M253.182689,313.026154 L253.678999,313.8943 L253.244926,314.142455 C252.468769,314.586176 251.699062,315.031401 250.934897,315.478769 L249.792689,316.15151 L249.362539,316.406403 L248.852752,315.546102 L249.282902,315.291209 C250.044771,314.83975 250.81171,314.390785 251.584632,313.943671 L252.748617,313.274309 L253.182689,313.026154 Z M260.206024,309.157106 L260.678484,310.038458 L260.237808,310.274688 C259.444142,310.700143 258.660685,311.124296 257.885688,311.54822 L256.72932,312.184068 L256.291726,312.425958 L255.807944,311.55077 L256.245539,311.308879 C257.015064,310.883505 257.792149,310.458468 258.578547,310.032691 L259.765348,309.393336 L260.206024,309.157106 Z M267.308606,305.459812 L267.762986,306.35062 L267.317582,306.57781 C266.402119,307.044765 265.509956,307.503478 264.634995,307.957281 L263.765541,308.409571 L263.322254,308.640865 L262.859665,307.754292 L263.302952,307.522998 C264.169235,307.070996 265.050637,306.615231 265.953268,306.152362 L266.863202,305.687002 L267.308606,305.459812 Z M274.469668,301.873755 L274.913527,302.769851 L274.465479,302.991781 C273.396061,303.52149 272.405304,304.014301 271.45411,304.489957 L270.887828,304.77345 L270.440828,304.997483 L269.992762,304.103483 L270.439762,303.87945 C271.377949,303.409238 272.34779,302.925867 273.388428,302.409571 L274.021619,302.095684 L274.469668,301.873755 Z M281.644642,298.336071 L282.087018,299.2329 L281.638603,299.454088 C281.108465,299.715587 280.564684,299.983557 279.846391,300.337335 C279.023344,300.742664 278.536209,300.982565 278.151415,301.172116 L278.048833,301.222649 L277.600306,301.443609 L277.158387,300.546554 L277.606914,300.325595 C278.008564,300.127728 278.506742,299.882388 279.404549,299.440242 C280.020089,299.137073 280.507418,298.896946 280.967808,298.669914 L281.196227,298.557258 L281.644642,298.336071 Z M288.795311,294.770313 L289.246064,295.662962 L288.799739,295.888338 C287.896551,296.344413 286.962769,296.812732 285.973506,297.306023 L285.220768,297.680871 L284.77308,297.903526 L284.327771,297.008149 L284.77546,296.785494 C285.792636,296.27961 286.74807,295.801902 287.666611,295.339665 L288.348986,294.995689 L288.795311,294.770313 Z M295.890465,291.092244 L296.359465,291.975442 L295.917866,292.209942 C295.057046,292.667059 294.178763,293.128228 293.277449,293.59658 L292.368253,294.067442 L291.923953,294.296783 L291.465271,293.408183 L291.909571,293.178842 C292.82434,292.706652 293.714182,292.242724 294.58465,291.783935 L295.448866,291.326744 L295.890465,291.092244 Z M302.882848,287.228722 L303.379006,288.096955 L302.94489,288.345034 C302.183791,288.779969 301.412922,289.214573 300.630514,289.649984 L299.448027,290.303849 L299.009824,290.544635 L298.528252,289.668229 L298.966455,289.427443 C299.757644,288.992697 300.536385,288.559365 301.304441,288.126313 L302.448732,287.476801 L302.882848,287.228722 Z M309.724615,283.11891 L310.254955,283.966695 L309.831063,284.231865 C309.082118,284.700375 308.325895,285.165949 307.56141,285.629331 L306.408363,286.322851 L305.979025,286.57911 L305.466508,285.720433 L305.895846,285.464174 C306.664899,285.005151 307.425186,284.544351 308.177687,284.081034 L309.300723,283.38408 L309.724615,283.11891 Z M316.38161,278.712922 L316.950698,279.535199 L316.539559,279.819743 C315.809147,280.325252 315.073197,280.825851 314.331103,281.32208 L313.213277,282.063214 L312.795474,282.337879 L312.246145,281.502273 L312.663947,281.227609 C313.407946,280.738502 314.145498,280.245343 314.877209,279.747596 L315.970472,278.997466 L316.38161,278.712922 Z M322.802633,273.996856 L323.412918,274.789038 L323.016827,275.094181 C322.951504,275.144472 322.951504,275.144472 322.886096,275.194698 C322.208926,275.714353 321.527848,276.228207 320.84251,276.736625 L319.811265,277.495222 L319.407311,277.789877 L318.818002,276.981969 L319.221956,276.687314 C320.249958,275.937463 321.268012,275.175891 322.277302,274.401369 C322.32041,274.368267 322.334779,274.357233 322.358703,274.338824 L322.406542,274.301999 L322.802633,273.996856 Z M328.836338,268.817699 L329.518904,269.548523 L329.153492,269.889806 C328.42138,270.573575 327.674724,271.245986 326.913526,271.907037 L326.147482,272.564303 L325.766078,272.887615 L325.119452,272.124808 L325.500856,271.801495 C326.262592,271.155778 327.009913,270.498878 327.742821,269.830794 L328.470926,269.158982 L328.836338,268.817699 Z M334.339483,263.0721 L335.091212,263.731572 L334.761477,264.107437 C334.099189,264.862376 333.421955,265.605663 332.729776,266.337296 L332.032616,267.065044 L331.684489,267.423941 L330.966694,266.727687 L331.314821,266.368789 C332.008259,265.653898 332.686916,264.927522 333.350795,264.189658 L334.009747,263.447965 L334.339483,263.0721 Z M339.234916,256.806094 L340.049384,257.386302 L339.75928,257.793536 C339.174849,258.613931 338.575346,259.422599 337.960772,260.219538 L337.341175,261.012566 L337.030854,261.404613 L336.24676,260.78397 L336.557082,260.391923 C337.173852,259.612722 337.775744,258.821936 338.362757,258.019563 L338.944812,257.213328 L339.234916,256.806094 Z M343.484433,250.064727 L344.352784,250.560678 L344.104808,250.994853 C343.604177,251.871399 343.088677,252.736397 342.558309,253.589846 L342.022985,254.439444 L341.753812,254.860805 L340.911089,254.322458 L341.180263,253.901096 C341.713864,253.065803 342.232801,252.219069 342.737073,251.360893 L343.236457,250.498903 L343.484433,250.064727 Z M347.039688,242.973285 L347.951371,243.384179 L347.745924,243.840021 C347.330334,244.762122 346.900348,245.673059 346.455965,246.57283 L346.006783,247.468879 L345.780058,247.91452 L344.888776,247.461071 L345.115501,247.01543 C345.564117,246.133648 345.998535,245.240771 346.418754,244.336799 L346.834241,243.429127 L347.039688,242.973285 Z M349.938244,235.553059 L350.88305,235.880689 L350.719235,236.353093 C350.424356,237.203453 350.118651,238.045426 349.80212,238.879012 L349.319203,240.1231 L349.134829,240.587865 L348.205299,240.219118 L348.389673,239.754353 C348.713423,238.938249 349.02649,238.113786 349.328871,237.280965 L349.774429,236.025462 L349.938244,235.553059 Z M352.194812,227.904229 L353.163329,228.153174 L353.038857,228.637433 C352.81459,229.50994 352.580142,230.374564 352.335512,231.231304 L351.96093,232.510501 L351.817175,232.98939 L350.859397,232.701881 L351.003152,232.222992 C351.255396,231.382693 351.497579,230.534519 351.729702,229.678469 L352.070339,228.388488 L352.194812,227.904229 Z M353.793786,220.081131 L354.779614,220.24889 L354.695734,220.741804 L354.241036,223.412215 L354.107106,224.058728 L354.107106,224.058728 L353.969686,224.702538 L353.863834,225.191205 L352.8865,224.979502 L352.992352,224.490835 L353.128138,223.854929 L353.128138,223.854929 L353.258215,223.228379 L353.709906,220.574045 L353.793786,220.081131 Z M355.25488,214.473263 L355.554574,215.310106 L358.649255,223.951457 L358.817833,224.422182 L357.876385,224.759338 L357.707807,224.288613 L355.197,217.276 L354.383,217.138 L349.694495,222.925486 L349.379754,223.313994 L348.602738,222.684514 L348.917478,222.296006 L354.695341,215.163944 L355.25488,214.473263 Z"></path>
        </g>
    </g>
</svg>