<svg width="18" height="18" viewBox="0 0 18 18" fill="none" xmlns="http://www.w3.org/2000/svg">
    <path fill-rule="evenodd" clip-rule="evenodd"
        d="M15.1917 9.81667C15.225 9.55 15.25 9.28334 15.25 9C15.25 8.71667 15.225 8.45001 15.1917 8.18334L16.95 6.80834C17.1083 6.68334 17.15 6.45834 17.05 6.275L15.3833 3.39167C15.2833 3.20834 15.0583 3.14167 14.875 3.20834L12.8 4.04167C12.3667 3.70834 11.9 3.43334 11.3917 3.22501L11.075 1.01667C11.05 0.816672 10.875 0.666672 10.6667 0.666672H7.33334C7.125 0.666672 6.95 0.816672 6.925 1.01667L6.60834 3.22501C6.1 3.43334 5.63334 3.71667 5.2 4.04167L3.125 3.20834C2.93334 3.13334 2.71667 3.20834 2.61667 3.39167L0.950004 6.275C0.84167 6.45834 0.89167 6.68334 1.05 6.80834L2.80834 8.18334C2.775 8.45001 2.75 8.72501 2.75 9C2.75 9.275 2.775 9.55 2.80834 9.81667L1.05 11.1917C0.89167 11.3167 0.850004 11.5417 0.950004 11.725L2.61667 14.6083C2.71667 14.7917 2.94167 14.8583 3.125 14.7917L5.2 13.9583C5.63334 14.2917 6.1 14.5667 6.60834 14.775L6.925 16.9833C6.95 17.1833 7.125 17.3333 7.33334 17.3333H10.6667C10.875 17.3333 11.05 17.1833 11.075 16.9833L11.3917 14.775C11.9 14.5667 12.3667 14.2833 12.8 13.9583L14.875 14.7917C15.0667 14.8667 15.2833 14.7917 15.3833 14.6083L17.05 11.725C17.15 11.5417 17.1083 11.3167 16.95 11.1917L15.1917 9.81667ZM9 11.9167C7.39167 11.9167 6.08334 10.6083 6.08334 9C6.08334 7.39167 7.39167 6.08334 9 6.08334C10.6083 6.08334 11.9167 7.39167 11.9167 9C11.9167 10.6083 10.6083 11.9167 9 11.9167Z"
        fill="#333333" />
</svg>
