<svg width="20" height="20" viewBox="0 0 20 20" fill="none" xmlns="http://www.w3.org/2000/svg">
<mask id="mask0_41_395" style="mask-type:luminance" maskUnits="userSpaceOnUse" x="0" y="0" width="20" height="20">
<rect width="20" height="20" fill="white"/>
</mask>
<g mask="url(#mask0_41_395)">
<path fill-rule="evenodd" clip-rule="evenodd" d="M7.5 1.66667C6.58083 1.66667 5.83333 2.41417 5.83333 3.33334V4.16667H2.5V5.83334H4.16667V16.6667C4.16667 17.5858 4.91417 18.3333 5.83333 18.3333H14.1667C15.0858 18.3333 15.8333 17.5858 15.8333 16.6667V5.83334H17.5V4.16667H14.1667V3.33334C14.1667 2.41417 13.4192 1.66667 12.5 1.66667H7.5ZM12.5 3.33334V4.16667H7.5V3.33334H12.5ZM5.83333 16.6667V5.83334H14.1667V16.6667H5.83333ZM9.16667 7.50001V15H7.5V7.50001H9.16667ZM12.5 7.50001V15H10.8333V7.50001H12.5Z" fill="#FF0000"/>
</g>
</svg>
