<svg width="20" height="44" viewBox="0 0 20 44" fill="none" xmlns="http://www.w3.org/2000/svg">
<mask id="path-1-inside-1_0_2189" fill="white">
<path fill-rule="evenodd" clip-rule="evenodd" d="M8.66667 0C7.5621 0 6.66667 0.895429 6.66667 2V23.9024C2.78269 25.2751 0 28.9793 0 33.3333C0 38.8562 4.47715 43.3333 10 43.3333C15.5228 43.3333 20 38.8562 20 33.3333C20 28.9793 17.2173 25.2751 13.3333 23.9024V2C13.3333 0.895431 12.4379 0 11.3333 0H8.66667Z"/>
</mask>
<path fill-rule="evenodd" clip-rule="evenodd" d="M8.66667 0C7.5621 0 6.66667 0.895429 6.66667 2V23.9024C2.78269 25.2751 0 28.9793 0 33.3333C0 38.8562 4.47715 43.3333 10 43.3333C15.5228 43.3333 20 38.8562 20 33.3333C20 28.9793 17.2173 25.2751 13.3333 23.9024V2C13.3333 0.895431 12.4379 0 11.3333 0H8.66667Z" fill="#1974D2"/>
<path d="M6.66667 23.9024L6.99991 24.8452L7.66667 24.6095V23.9024H6.66667ZM13.3333 23.9024H12.3333V24.6095L13.0001 24.8452L13.3333 23.9024ZM7.66667 2C7.66667 1.44771 8.11438 1 8.66667 1V-1C7.00981 -1 5.66667 0.343143 5.66667 2H7.66667ZM7.66667 23.9024V2H5.66667V23.9024H7.66667ZM1 33.3333C1 29.4162 3.50299 26.0812 6.99991 24.8452L6.33342 22.9595C2.0624 24.4691 -1 28.5423 -1 33.3333H1ZM10 42.3333C5.02944 42.3333 1 38.3039 1 33.3333H-1C-1 39.4085 3.92487 44.3333 10 44.3333V42.3333ZM19 33.3333C19 38.3039 14.9706 42.3333 10 42.3333V44.3333C16.0751 44.3333 21 39.4085 21 33.3333H19ZM13.0001 24.8452C16.497 26.0812 19 29.4162 19 33.3333H21C21 28.5423 17.9376 24.4691 13.6666 22.9595L13.0001 24.8452ZM12.3333 2V23.9024H14.3333V2H12.3333ZM11.3333 1C11.8856 1 12.3333 1.44771 12.3333 2H14.3333C14.3333 0.343147 12.9902 -1 11.3333 -1V1ZM8.66667 1H11.3333V-1H8.66667V1Z" fill="#1974D2" mask="url(#path-1-inside-1_0_2189)"/>
<path fill-rule="evenodd" clip-rule="evenodd" d="M9.16671 7.50001H15.8334H9.16671Z" fill="#1974D2"/>
<path d="M9.16671 7.50001H15.8334" stroke="#1974D2" stroke-linecap="square"/>
<path fill-rule="evenodd" clip-rule="evenodd" d="M9.16671 12.5H15.8334H9.16671Z" fill="#1974D2"/>
<path d="M9.16671 12.5H15.8334" stroke="#1974D2" stroke-linecap="square"/>
<path fill-rule="evenodd" clip-rule="evenodd" d="M9.16671 17.5H15.8334H9.16671Z" fill="#1974D2"/>
<path d="M9.16671 17.5H15.8334" stroke="#1974D2" stroke-linecap="square"/>
</svg>
