<svg width="22" height="21" viewBox="0 0 22 21" fill="none" xmlns="http://www.w3.org/2000/svg">
<path opacity="0.55" fill-rule="evenodd" clip-rule="evenodd" d="M4.92752 8.11594C7.12866 8.11594 8.91303 6.33157 8.91303 4.13043C8.91303 1.9293 7.12866 0.144928 4.92752 0.144928C2.72639 0.144928 0.942017 1.9293 0.942017 4.13043C0.942017 6.33157 2.72639 8.11594 4.92752 8.11594ZM4.92752 6.52174C3.60684 6.52174 2.53622 5.45112 2.53622 4.13043C2.53622 2.80975 3.60684 1.73913 4.92752 1.73913C6.24821 1.73913 7.31883 2.80975 7.31883 4.13043C7.31883 5.45112 6.24821 6.52174 4.92752 6.52174ZM17.6811 8.11594C19.8823 8.11594 21.6667 6.33157 21.6667 4.13043C21.6667 1.9293 19.8823 0.144928 17.6811 0.144928C15.48 0.144928 13.6956 1.9293 13.6956 4.13043C13.6956 6.33157 15.48 8.11594 17.6811 8.11594ZM17.6811 6.52174C16.3605 6.52174 15.2898 5.45112 15.2898 4.13043C15.2898 2.80975 16.3605 1.73913 17.6811 1.73913C19.0018 1.73913 20.0725 2.80975 20.0725 4.13043C20.0725 5.45112 19.0018 6.52174 17.6811 6.52174ZM8.91303 16.8841C8.91303 19.0852 7.12866 20.8696 4.92752 20.8696C2.72639 20.8696 0.942017 19.0852 0.942017 16.8841C0.942017 14.6829 2.72639 12.8986 4.92752 12.8986C7.12866 12.8986 8.91303 14.6829 8.91303 16.8841ZM2.53622 16.8841C2.53622 18.2047 3.60684 19.2754 4.92752 19.2754C6.24821 19.2754 7.31883 18.2047 7.31883 16.8841C7.31883 15.5634 6.24821 14.4928 4.92752 14.4928C3.60684 14.4928 2.53622 15.5634 2.53622 16.8841ZM17.6811 20.8696C19.8823 20.8696 21.6667 19.0852 21.6667 16.8841C21.6667 14.6829 19.8823 12.8986 17.6811 12.8986C15.48 12.8986 13.6956 14.6829 13.6956 16.8841C13.6956 19.0852 15.48 20.8696 17.6811 20.8696ZM17.6811 19.2754C16.3605 19.2754 15.2898 18.2047 15.2898 16.8841C15.2898 15.5634 16.3605 14.4928 17.6811 14.4928C19.0018 14.4928 20.0725 15.5634 20.0725 16.8841C20.0725 18.2047 19.0018 19.2754 17.6811 19.2754Z" fill="#1974D2"/>
</svg>
