<svg width="22" height="21" viewBox="0 0 22 21" fill="none" xmlns="http://www.w3.org/2000/svg">
<path opacity="0.55" fill-rule="evenodd" clip-rule="evenodd" d="M10.9865 0.144928C7.35068 0.144928 4.39234 3.15806 4.39234 6.86135C4.39234 8.64187 5.48633 10.1409 6.45246 11.4646L6.45548 11.4688L6.46828 11.4863C6.62961 11.707 6.78921 11.9254 6.94182 12.143C7.24269 12.5703 7.44708 13.0463 7.56663 13.5971C7.77929 14.5743 8.58624 15.2568 9.52923 15.2568H12.4439C13.3868 15.2568 14.1938 14.5751 14.4065 13.5971C14.526 13.0463 14.7304 12.5711 15.0313 12.143C15.183 11.9266 15.3418 11.7094 15.5022 11.4899L15.5022 11.4898L15.5176 11.4688L15.5206 11.4647C16.4867 10.1409 17.5808 8.64187 17.5808 6.86135C17.5807 3.15806 14.6224 0.144928 10.9865 0.144928ZM14.8557 10.9676C14.6867 11.1985 14.5202 11.4268 14.3603 11.6543C13.9985 12.1698 13.7429 12.7617 13.6011 13.4157C13.4734 14.0059 12.997 14.4173 12.4439 14.4173H9.52923C8.97613 14.4173 8.49973 14.0059 8.37195 13.4157C8.23019 12.7609 7.97383 12.169 7.6128 11.6543C7.45288 11.4277 7.28639 11.1985 7.11742 10.9676L7.11728 10.9674C6.1826 9.68797 5.21664 8.36574 5.21664 6.86135C5.21664 3.62153 7.80487 0.984505 10.9865 0.984505C14.1682 0.984505 16.7564 3.62153 16.7564 6.86135C16.7564 8.36579 15.7904 9.68806 14.8557 10.9675L14.8557 10.9675L14.8557 10.9676ZM8.51371 16.9903C8.51371 16.7518 8.69836 16.5582 8.92586 16.5582H13.0472C13.2747 16.5582 13.4593 16.7518 13.4594 16.9903C13.4594 17.2288 13.2747 17.4223 13.0472 17.4223H8.92586C8.69836 17.4223 8.51371 17.2288 8.51371 16.9903ZM8.51371 18.7139C8.51371 18.4754 8.69836 18.2818 8.92586 18.2818H13.0472C13.2747 18.2818 13.4594 18.4754 13.4594 18.7139C13.4594 18.9524 13.2747 19.1459 13.0472 19.1459H8.92586C8.69836 19.1459 8.51371 18.9524 8.51371 18.7139ZM12.6351 20.4375C12.6351 20.199 12.4504 20.0054 12.2229 20.0054H9.75012C9.52262 20.0054 9.33797 20.199 9.33797 20.4375C9.33797 20.676 9.52262 20.8696 9.75012 20.8696H12.2229C12.4504 20.8696 12.6351 20.676 12.6351 20.4375Z" fill="#1974D2"/>
</svg>
