<svg width="27" height="27" viewBox="0 0 27 27" fill="none" xmlns="http://www.w3.org/2000/svg">
<path fill-rule="evenodd" clip-rule="evenodd" d="M13.5 27C20.9558 27 27 20.9558 27 13.5C27 6.04416 20.9558 0 13.5 0C6.04416 0 0 6.04416 0 13.5C0 17.4024 1.65582 20.9181 4.3032 23.3828L3.55057 26.619L7.0081 25.3395C8.93437 26.3979 11.1469 27 13.5 27Z" fill="#0768FF"/>
<path fill-rule="evenodd" clip-rule="evenodd" d="M9.47738 10.1704V10H4.15216V11.1974H7.84608L4.19752 15.9394C4.08724 16.1108 4 16.2752 4 16.644V16.9451H9.02083C9.14185 16.9451 9.25794 16.8947 9.34356 16.8049C9.42918 16.7151 9.47732 16.5932 9.47738 16.4662V15.8276H5.60233L9.02487 11.3168C9.07284 11.2517 9.17362 11.1316 9.21653 11.0805L9.24028 11.052C9.43701 10.7476 9.47738 10.4882 9.47738 10.1704ZM13.8879 11.69V12.0637L13.8874 12.0633C13.4425 11.7213 12.9053 11.5372 12.3538 11.5379C10.9179 11.5379 9.75367 12.7596 9.75367 14.2663C9.75367 15.773 10.9179 16.9948 12.3538 16.9948C12.9053 16.9954 13.4425 16.8114 13.8874 16.4693L13.8879 16.4689C13.8893 16.7324 14.0932 16.9453 14.3442 16.9451H14.9541V11.69H13.8879ZM16.2472 16.9451C16.0374 16.945 15.8672 16.7666 15.8669 16.5463V10H17.0082V16.9451H16.2472ZM23 14.2518C23 12.7358 21.8283 11.5049 20.3823 11.5049C18.9364 11.5049 17.7646 12.7358 17.7646 14.2518C17.7646 15.769 18.9364 17 20.3823 17C21.8283 17 23 15.769 23 14.2518ZM12.3538 15.8716C13.1989 15.8716 13.8836 15.153 13.8836 14.2663C13.8836 13.381 13.1988 12.6623 12.3538 12.6623C11.5088 12.6623 10.824 13.3809 10.824 14.2663C10.824 15.153 11.5088 15.8716 12.3538 15.8716ZM21.9221 14.2518C21.9221 15.1451 21.2323 15.8689 20.3823 15.8689C19.531 15.8689 18.8425 15.1451 18.8425 14.2518C18.8425 13.3598 19.531 12.6361 20.3823 12.6361C21.2323 12.6361 21.9221 13.3598 21.9221 14.2518Z" fill="white"/>
</svg>
